<?xml version="1.0" encoding="utf-8"?>
<!-- Generator: Adobe Illustrator 26.5.0, SVG Export Plug-In . SVG Version: 6.00 Build 0)  -->
<svg version="1.1" id="Modo_de_isolamento" xmlns="http://www.w3.org/2000/svg" xmlns:xlink="http://www.w3.org/1999/xlink" x="0px"
	 y="0px" viewBox="0 0 1920 272.49" style="enable-background:new 0 0 1920 272.49;" xml:space="preserve">
<style type="text/css">
	.st0{clip-path:url(#SVGID_00000100353551467345054150000001185640338209677709_);}
	.st1{fill:#47B1BF;}
	.st2{fill:#6FCBDC;}
	.st3{fill:#46A5B2;}
	.st4{fill:#E5E5E5;}
</style>
<g>
	<defs>
		<rect id="SVGID_1_" width="1920" height="272.49"/>
	</defs>
	<clipPath id="SVGID_00000072262884212253690730000013435296322121240760_">
		<use xlink:href="#SVGID_1_"  style="overflow:visible;"/>
	</clipPath>
	<g style="clip-path:url(#SVGID_00000072262884212253690730000013435296322121240760_);">
		<g>
			<g>
				<path class="st1" d="M1971.64,372.34c-156.28,40.7-173.05-42.95-332.95-20.27c-159.9,22.68-150.48,89.05-310.38,111.73
					c-159.9,22.68-169.31-43.7-329.21-21.02c-159.9,22.68-150.49,89.05-310.38,111.73c-159.9,22.68-169.31-43.7-329.21-21.02
					c-159.9,22.68-150.49,89.05-310.39,111.73c-159.9,22.68-169.31-43.7-329.21-21.02s-158.66,130.84-319.04,111.83
					c-41.35-4.9,37.47-74.92,37.47-116.56c0-41.64-67.04-41.64-67.04-83.27c0-41.64,67.04-41.64,67.04-83.27
					c0-41.64-67.04-41.64-67.04-83.27c0-41.64,67.04-41.64,67.04-83.27c0-41.64-67.04-41.64-67.04-83.28
					c0-41.64,67.04-41.64,67.04-83.28S-643.93,14.59-603.63,4.1c154.74-40.3,168.34,65.96,328.24,65.96
					c159.9,0,159.9-67.04,319.79-67.04s159.9,67.04,319.8,67.04c159.9,0,159.9-67.04,319.8-67.04c159.9,0,159.9,67.04,319.79,67.04
					c159.9,0,159.9-67.04,319.8-67.04c159.9,0,159.9,67.04,319.8,67.04s164.96-85.63,323.75-66.81
					c18.83,2.23-37.47,52.25-37.47,71.21c0,18.96,67.04,18.96,67.04,37.92c0,18.96-67.04,18.96-67.04,37.92
					c0,18.96,67.04,18.96,67.04,37.92c0,18.96-67.04,18.96-67.04,37.92c0,18.96,67.04,18.96,67.04,37.92
					c0,18.96-70.72,27.97-65.97,46.33C1940.16,346.77,1989.99,367.57,1971.64,372.34z"/>
			</g>
		</g>
	</g>
	<g style="clip-path:url(#SVGID_00000072262884212253690730000013435296322121240760_);">
		<path class="st2" d="M1435.18,491.97c-250.06,65.12-273.33-51.01-529.17-14.73S662.69,601.82,406.85,638.1
			c-255.84,36.28-268.36-52.01-524.2-15.73c-255.84,36.28-243.32,124.58-499.15,160.86s-256.09,14.57-512.69-15.86
			c-66.16-7.84-49.84-22.34-49.84-88.96c0-66.62,89.18-66.62,89.18-133.24c0-66.62-89.18-66.62-89.18-133.24
			c0-66.62,89.18-66.62,89.18-133.24s-120.3-159.6-55.82-176.39c247.58-64.47,267.07,87.74,522.91,87.74s255.84-89.18,511.67-89.18
			s255.84,89.18,511.67,89.18c255.84,0,255.84-89.18,511.68-89.18s252.37,58.74,506.43,88.87c30.12,3.57,49.84-13.94,49.84,16.39
			c0,30.34-89.18,30.34-89.18,60.67c0,30.34,89.18,30.34,89.18,60.67c0,30.34-95.36,42.48-87.75,71.85
			C1394.75,453.3,1464.53,484.33,1435.18,491.97z"/>
	</g>
	<g style="clip-path:url(#SVGID_00000072262884212253690730000013435296322121240760_);">
		<g>
			<g>
				<path class="st3" d="M2402.93,921.41c-160.37,19.02-159.14-89.15-319.04-111.83c-159.9-22.68-169.31,43.7-329.21,21.02
					s-150.48-89.05-310.38-111.73c-159.9-22.68-169.31,43.7-329.21,21.02c-159.9-22.68-150.48-89.05-310.38-111.73
					c-159.9-22.68-169.31,43.7-329.21,21.02c-159.9-22.68-150.49-89.05-310.39-111.73s-176.67,60.97-332.95,20.27
					c-18.35-4.78,41.97-51.4,41.97-70.36c0-18.96-67.04-18.96-67.04-37.92c0-18.96,67.04-18.96,67.04-37.92
					c0-18.96-67.04-18.96-67.04-37.92c0-18.96,67.04-18.96,67.04-37.92c0-18.96-67.04-18.96-67.04-37.92
					c0-18.96,67.04-18.96,67.04-37.93s-56.3-68.98-37.47-71.21C-4.55,169.8,0.51,255.44,160.4,255.44
					c159.9,0,159.9-67.04,319.79-67.04s159.9,67.04,319.8,67.04c159.9,0,159.9-67.04,319.8-67.04c159.9,0,159.9,67.04,319.79,67.04
					c159.9,0,159.9-67.04,319.8-67.04c159.9,0,159.9,67.04,319.8,67.04s173.51-106.25,328.25-65.96
					c40.29,10.49-41.97,74.07-41.97,115.71c0,41.64,67.04,41.64,67.04,83.27c0,41.64-67.04,41.64-67.04,83.27
					c0,41.64,67.04,41.64,67.04,83.27c0,41.64-67.04,41.64-67.04,83.27c0,41.64,67.04,41.64,67.04,83.28
					c0,41.64-75.59,50.31-66.17,90.87C2380.82,874.77,2444.28,916.51,2402.93,921.41z"/>
			</g>
		</g>
	</g>
	<g style="clip-path:url(#SVGID_00000072262884212253690730000013435296322121240760_);">
		<g>
			<path class="st4" d="M2104.92,557.73c-156.28,40.7-173.05-42.95-332.95-20.27c-159.9,22.68-150.48,89.05-310.38,111.73
				c-159.9,22.68-169.31-43.7-329.21-21.02c-159.9,22.68-150.49,89.05-310.38,111.73c-159.9,22.68-169.31-43.7-329.21-21.02
				C332.89,741.55,342.3,807.92,182.4,830.6c-159.9,22.68-169.31-43.7-329.21-21.02s-158.66,130.84-319.04,111.83
				c-41.35-4.9,37.47-74.92,37.47-116.56c0-41.64-67.04-41.64-67.04-83.27c0-41.64,67.04-41.64,67.04-83.27
				c0-41.64-67.04-41.64-67.04-83.27c0-41.64,67.04-41.64,67.04-83.27c0-41.64-67.04-41.64-67.04-83.28
				c0-41.64,67.04-41.64,67.04-83.28s-82.26-105.22-41.97-115.72c154.74-40.3,168.34,65.96,328.24,65.96
				c159.9,0,159.9-67.04,319.79-67.04s159.9,67.04,319.8,67.04c159.9,0,159.9-67.04,319.8-67.04c159.9,0,159.9,67.04,319.79,67.04
				c159.9,0,159.9-67.04,319.8-67.04c159.9,0,159.9,67.04,319.8,67.04s164.96-85.63,323.75-66.81
				c18.83,2.23-37.47,52.25-37.47,71.21c0,18.96,67.04,18.96,67.04,37.92c0,18.96-67.04,18.96-67.04,37.92
				c0,18.96,67.04,18.96,67.04,37.92c0,18.96-67.04,18.96-67.04,37.92c0,18.96,67.04,18.96,67.04,37.92
				c0,18.96-70.72,27.97-65.97,46.33C2073.44,532.15,2123.27,552.95,2104.92,557.73z"/>
		</g>
	</g>
</g>
</svg>
