<?xml version="1.0" encoding="utf-8"?>
<!-- Generator: Adobe Illustrator 26.5.0, SVG Export Plug-In . SVG Version: 6.00 Build 0)  -->
<svg version="1.1" xmlns="http://www.w3.org/2000/svg" xmlns:xlink="http://www.w3.org/1999/xlink" x="0px" y="0px"
	 viewBox="0 0 527.36 791.16" style="enable-background:new 0 0 527.36 791.16;" xml:space="preserve">
<style type="text/css">
	.st0{fill:#4C4C4C;}
	.st1{fill:#3CD3C1;}
	.st2{fill:url(#SVGID_1_);}
</style>
<g id="Camada_1">
</g>
<g id="Modo_de_isolamento">
	<g>
		<g>
			<g>
				<path class="st0" d="M0,563.13c0-40.06,24.81-66.88,61.92-66.88s61.74,26.83,61.74,66.88c0,40.42-24.81,67.25-61.92,67.25
					C24.62,630.38,0,603.56,0,563.13z M86.91,563.32c0-21.5-10.11-35.83-24.99-35.83c-15.07,0-25.17,14.33-25.17,35.83
					c0,21.5,10.11,35.83,24.99,35.83C76.8,599.15,86.91,584.82,86.91,563.32z"/>
				<path class="st0" d="M133.77,582.98c0-27.75,20.21-47.22,49.79-47.22c14.33,0,28.85,4.41,36.01,10.84l-13.05,22.05
					c-4.41-2.39-11.21-3.67-16.54-3.67c-11.94,0-19.29,6.8-19.29,17.27c0,11.21,9,18.93,22.97,18.93c6.43,0,13.05-1.65,17.64-4.04
					l4.96,27.19c-8.64,3.49-20.95,6.06-31.79,6.06C155.27,630.38,133.77,611.64,133.77,582.98z"/>
				<path class="st0" d="M314.95,591.06h-52c2.76,8.64,9.92,11.76,18.56,11.76c8.27,0,14.33-1.29,20.21-3.49l7.72,23.15
					c-7.53,4.41-23.34,8.08-35.83,8.08c-27.56,0-48.88-18.19-48.88-47.96c0-26.46,19.66-46.85,48.51-46.85
					c27.01,0,44.83,18.01,44.83,49.43L314.95,591.06z M262.22,574.34h19.84c-1.29-8.82-4.41-11.58-9.37-11.58
					S263.69,565.52,262.22,574.34z"/>
				<path class="st0" d="M416.38,578.2v50.35h-31.79l-2.94-11.94c-6.8,8.45-17.46,13.78-28.85,13.78c-17.09,0-28.3-12.13-28.3-27.01
					c0-18.56,17.46-26.83,35.46-26.83c6.61,0,15.25,1.1,20.58,2.02v-2.76c0-7.9-6.98-12.49-18.56-12.49
					c-7.53,0-18.37,2.02-25.36,4.78l-4.78-24.44c8.82-4.59,27.01-7.9,40.24-7.9C401.5,535.76,416.38,552.66,416.38,578.2z
					 M380.55,604.11v-10.84c-3.12-0.55-4.96-0.92-9.37-0.92c-6.43,0-9.74,2.76-9.74,6.98c0,4.41,2.39,7.17,7.9,7.17
					C372.46,606.5,376.51,605.76,380.55,604.11z"/>
				<path class="st0" d="M527.36,575.26v53.29h-35.83v-50.9c0-9.92-3.86-12.68-10.84-12.68c-2.57,0-5.51,0.55-9.19,2.02v61.55
					h-35.83v-90.95l32.34-1.84l2.02,11.02c8.82-6.25,18.19-11.02,27.75-11.02C512.11,535.76,527.36,545.13,527.36,575.26z"/>
			</g>
			<g>
				<path class="st0" d="M62.11,778.12l4.96-29.4c11.58,5.88,22.42,11.39,38.95,11.39c10.66,0,18.93-1.1,18.93-7.72
					c0-3.49-2.39-6.61-9-9.74l-20.58-9.74c-18.93-8.82-27.93-18.56-27.93-36.01c0-27.38,21.68-40.06,49.06-40.06
					c13.6,0,30.87,3.12,42.08,8.45l-4.78,29.58c-9-4.59-22.05-6.8-32.34-6.8s-17.27,1.29-17.27,6.8c0,3.12,2.39,5.7,7.72,8.08
					l22.23,10.47c19.11,8.64,27.56,21.5,27.56,37.12c0,24.62-21.68,40.61-52.18,40.61C92.06,791.16,73.87,786.02,62.11,778.12z"/>
				<path class="st0" d="M267.9,735.85v53.29h-35.83v-50.9c0-9.92-3.86-12.68-10.84-12.68c-2.57,0-5.51,0.55-9.19,2.02v61.55h-35.83
					V660.52l35.83-3.67v49.43c8.27-5.7,17.27-9.92,26.28-9.92C252.65,696.35,267.9,705.72,267.9,735.85z"/>
				<path class="st0" d="M282.42,743.76c0-28.48,19.48-47.41,48.69-47.41c29.03,0,48.69,18.93,48.69,47.41
					c0,28.3-19.66,47.22-48.88,47.22C301.9,790.98,282.42,772.05,282.42,743.76z M342.88,743.76c0-11.02-4.78-18.19-11.76-18.19
					c-7.17,0-11.76,7.17-11.76,18.19c0,10.84,4.59,18.01,11.58,18.01C338.1,761.76,342.88,754.41,342.88,743.76z"/>
				<path class="st0" d="M465.26,786.57c-5.7,2.57-19.48,4.41-27.56,4.41c-15.62,0-37.3-6.43-37.3-40.42v-27.19h-14.88v-25.17h16.54
					l12.31-24.99h21.87v24.99h27.75v25.17h-27.75v23.52c0,11.02,4.04,14.88,10.66,14.88c3.67,0,10.66-1.1,13.6-2.39L465.26,786.57z"
					/>
			</g>
		</g>
		<g>
			<g>
				<path class="st1" d="M351.91,169.27l-17.23-29.84c-6.78-11.74-23.41-21.34-36.97-21.34h0c-0.9,0-1.62,0.73-1.62,1.62v103.25
					c0,1.45,1.75,2.17,2.77,1.15l52.79-52.88C352.17,170.71,352.27,169.9,351.91,169.27z"/>
				<path class="st1" d="M354.46,177.78l-68.84,68.95c-1.02,1.02-0.3,2.77,1.15,2.77h79.06c0.58,0,1.12-0.31,1.4-0.81l2.94-5.09
					c6.78-11.74,6.78-30.94,0-42.68l-13.16-22.8C356.48,177.19,355.21,177.02,354.46,177.78z"/>
				<path class="st1" d="M318.81,318.9c0.54,0.55,1.39,0.66,2.04,0.24c5.61-3.59,10.44-8.22,13.36-13.28l27.33-47.32
					c0.62-1.08-0.16-2.43-1.4-2.43H261c-1.44,0-2.17,1.73-1.16,2.76L318.81,318.9z"/>
				<path class="st1" d="M157.22,195.81l-2.95,5.1c-6.78,11.74-6.77,30.94,0,42.68l13.31,23.05c0.53,0.93,1.8,1.09,2.56,0.33
					l68.73-69.22c1.02-1.02,0.29-2.77-1.15-2.77h-79.1C158.04,195,157.51,195.3,157.22,195.81z"/>
				<path class="st1" d="M204.91,126.04c-0.55-0.55-1.41-0.65-2.06-0.22c-5.29,3.52-9.83,7.96-12.62,12.8l-27.33,47.33
					c-0.62,1.08,0.16,2.43,1.41,2.43h98.77c1.44,0,2.17-1.74,1.15-2.77L204.91,126.04z"/>
				<path class="st1" d="M234.97,324.78c0,0.9,0.73,1.62,1.62,1.62h62.05c4.06,0,8.4-0.9,12.66-2.48c1.09-0.4,1.37-1.82,0.56-2.65
					l-74.11-75.45c-1.02-1.04-2.78-0.32-2.78,1.14V324.78z"/>
				<path class="st1" d="M172.69,275.49l17.07,29.56c6.78,11.74,23.41,21.34,36.97,21.34h0c0.9,0,1.62-0.73,1.62-1.62v-103.1
					c0-1.45-1.75-2.17-2.77-1.14l-52.64,53.01C172.43,274.06,172.33,274.86,172.69,275.49z"/>
				<path class="st1" d="M289.47,119.71c0-0.9-0.73-1.62-1.62-1.62H225.8c-4.33,0-8.99,1.03-13.52,2.81
					c-1.07,0.42-1.33,1.83-0.52,2.64l74.95,75.26c1.02,1.03,2.77,0.3,2.77-1.14V119.71z"/>
			</g>
			
				<radialGradient id="SVGID_1_" cx="265.1424" cy="222.2432" r="228.8975" gradientTransform="matrix(1.035340e-13 -1 1.0678 1.105540e-13 27.8302 487.3856)" gradientUnits="userSpaceOnUse">
				<stop  offset="0" style="stop-color:#315A7C"/>
				<stop  offset="0.4087" style="stop-color:#2F5D7E"/>
				<stop  offset="0.6606" style="stop-color:#2A6584"/>
				<stop  offset="0.8692" style="stop-color:#22738F"/>
				<stop  offset="1" style="stop-color:#1A8199"/>
			</radialGradient>
			<path class="st2" d="M507,201.72c6.52,11.29,6.52,29.77,0,41.06l-28.38,49.16c-6.52,11.29-17.19,11.29-23.71,0l-28.38-49.16
				c-6.52-11.29-6.52-29.77,0-41.06l28.38-49.16c6.52-11.29,17.19-11.29,23.71,0L507,201.72z M438.82,319.8l-28.38-49.16
				c-6.52-11.29-17.19-11.29-23.71,0l-28.38,49.16c-6.52,11.29-6.52,29.77,0,41.06l28.38,49.15c6.52,11.29,17.19,11.29,23.71,0
				l28.38-49.15C445.34,349.58,445.34,331.1,438.82,319.8z M166.1,319.81l-28.38-49.16c-6.52-11.29-17.19-11.29-23.71,0
				l-28.38,49.16c-6.52,11.29-6.52,29.77,0,41.06L114,410.02c6.52,11.29,14.97,15.13,18.79,8.52c3.81-6.6,6.93-12,6.93-12
				c0,0,5.34-9.24,11.86-20.53l14.52-25.14C172.62,349.58,172.62,331.1,166.1,319.81z M358.35,124.68l28.38,49.16
				c6.52,11.29,17.19,11.29,23.7,0l28.38-49.17c6.52-11.29,6.52-29.77,0-41.06l-28.37-49.14c-6.52-11.29-17.19-11.29-23.71,0
				l-28.38,49.15C351.83,94.91,351.83,113.39,358.35,124.68z M190.24,69.68c6.52,11.29,22.52,20.53,35.56,20.53h72.85
				c13.04,0,29.04-9.24,35.56-20.53l28.38-49.15C369.1,9.24,363.77,0,350.73,0H173.71c-13.04,0-18.37,9.24-11.85,20.53L190.24,69.68
				z M114.01,173.85c6.52,11.29,17.19,11.29,23.71,0l28.38-49.17c6.52-11.29,6.52-29.77,0-41.06l-28.38-49.15
				c-6.52-11.29-17.19-11.29-23.71,0L85.63,83.62c-6.52,11.29-6.52,29.77,0,41.06L114.01,173.85z M17.44,242.78l28.38,49.15
				c6.52,11.29,17.19,11.29,23.71,0l28.39-49.15c6.52-11.29,6.52-29.77,0-41.06l-28.39-49.16c-6.52-11.29-17.19-11.29-23.71,0
				l-28.39,49.16C10.92,213.01,10.92,231.49,17.44,242.78z M360.57,420.47c0,0-5.33-9.24-11.85-20.53l-14.51-25.13
				c-6.52-11.29-22.52-20.53-35.56-20.53H225.8c-13.04,0-29.04,9.24-35.56,20.53l-28.38,49.15c-6.52,11.29-1.19,20.53,11.85,20.53
				h177.01c13.04,0,20.59-5.4,16.78-12.01S360.57,420.47,360.57,420.47z"/>
		</g>
	</g>
</g>
</svg>
