<?xml version="1.0" encoding="utf-8"?>
<!-- Generator: Adobe Illustrator 26.5.0, SVG Export Plug-In . SVG Version: 6.00 Build 0)  -->
<svg version="1.1" xmlns="http://www.w3.org/2000/svg" xmlns:xlink="http://www.w3.org/1999/xlink" x="0px" y="0px"
	 viewBox="0 0 1000 199.15" style="enable-background:new 0 0 1000 199.15;" xml:space="preserve">
<style type="text/css">
	.st0{fill:#4C4C4C;}
	.st1{fill:#3CD3C1;}
	.st2{fill:url(#SVGID_1_);}
</style>
<g id="Camada_1">
</g>
<g id="Modo_de_isolamento">
	<g>
		<g>
			<g>
				<path class="st0" d="M270.46,99.39c0-29.52,18.28-49.29,45.64-49.29c27.35,0,45.5,19.77,45.5,49.29
					c0,29.79-18.28,49.56-45.64,49.56C288.61,148.95,270.46,129.18,270.46,99.39z M334.51,99.53c0-15.84-7.45-26.41-18.42-26.41
					c-11.1,0-18.55,10.56-18.55,26.41c0,15.84,7.45,26.41,18.42,26.41C327.06,125.93,334.51,115.37,334.51,99.53z"/>
				<path class="st0" d="M369.05,114.02c0-20.45,14.9-34.8,36.7-34.8c10.56,0,21.26,3.25,26.54,7.99l-9.61,16.25
					c-3.25-1.76-8.26-2.71-12.19-2.71c-8.8,0-14.22,5.01-14.22,12.73c0,8.26,6.64,13.95,16.93,13.95c4.74,0,9.62-1.22,13-2.98
					l3.66,20.04c-6.37,2.57-15.44,4.47-23.43,4.47C384.89,148.95,369.05,135.14,369.05,114.02z"/>
				<path class="st0" d="M502.58,119.97h-38.32c2.03,6.37,7.31,8.67,13.68,8.67c6.09,0,10.56-0.95,14.9-2.57l5.69,17.06
					c-5.55,3.25-17.2,5.96-26.41,5.96c-20.31,0-36.02-13.41-36.02-35.34c0-19.5,14.49-34.53,35.75-34.53
					c19.91,0,33.04,13.27,33.04,36.43L502.58,119.97z M463.71,107.65h14.63c-0.95-6.5-3.25-8.53-6.91-8.53
					S464.8,101.15,463.71,107.65z"/>
				<path class="st0" d="M577.33,110.5v37.11H553.9l-2.17-8.8c-5.01,6.23-12.86,10.16-21.26,10.16c-12.59,0-20.85-8.94-20.85-19.91
					c0-13.68,12.86-19.77,26.14-19.77c4.88,0,11.24,0.81,15.17,1.49v-2.03c0-5.82-5.15-9.21-13.68-9.21
					c-5.55,0-13.54,1.49-18.69,3.52l-3.52-18.01c6.5-3.39,19.91-5.82,29.66-5.82C566.36,79.21,577.33,91.67,577.33,110.5z
					 M550.92,129.59v-7.99c-2.3-0.41-3.66-0.68-6.91-0.68c-4.74,0-7.18,2.03-7.18,5.15c0,3.25,1.76,5.28,5.82,5.28
					C544.97,131.35,547.95,130.81,550.92,129.59z"/>
				<path class="st0" d="M659.13,108.33v39.27h-26.41v-37.51c0-7.31-2.84-9.34-7.99-9.34c-1.9,0-4.06,0.41-6.77,1.49v45.37h-26.41
					V80.57l23.83-1.35l1.49,8.13c6.5-4.6,13.41-8.13,20.45-8.13C647.89,79.21,659.13,86.12,659.13,108.33z"/>
			</g>
			<g>
				<path class="st0" d="M702.88,139.43l3.66-21.67c8.53,4.33,16.52,8.4,28.71,8.4c7.85,0,13.95-0.81,13.95-5.69
					c0-2.57-1.76-4.88-6.64-7.18l-15.17-7.18c-13.95-6.5-20.58-13.68-20.58-26.54c0-20.18,15.98-29.52,36.16-29.52
					c10.02,0,22.75,2.3,31.01,6.23l-3.52,21.8c-6.64-3.39-16.25-5.01-23.83-5.01c-7.58,0-12.73,0.95-12.73,5.01
					c0,2.3,1.76,4.2,5.69,5.96l16.39,7.72c14.08,6.36,20.31,15.84,20.31,27.35c0,18.15-15.98,29.93-38.46,29.93
					C724.95,149.05,711.55,145.26,702.88,139.43z"/>
				<path class="st0" d="M854.55,108.29v39.27h-26.41v-37.51c0-7.31-2.84-9.34-7.99-9.34c-1.9,0-4.06,0.41-6.77,1.49v45.37h-26.41
					V52.77l26.41-2.71v36.43c6.09-4.2,12.73-7.31,19.37-7.31C843.31,79.17,854.55,86.08,854.55,108.29z"/>
				<path class="st0" d="M865.25,114.11c0-20.99,14.35-34.94,35.89-34.94c21.4,0,35.89,13.95,35.89,34.94
					c0,20.85-14.49,34.8-36.02,34.8C879.61,148.91,865.25,134.97,865.25,114.11z M909.81,114.11c0-8.13-3.52-13.41-8.67-13.41
					c-5.28,0-8.67,5.28-8.67,13.41c0,7.99,3.39,13.27,8.53,13.27C906.28,127.38,909.81,121.96,909.81,114.11z"/>
				<path class="st0" d="M1000,145.66c-4.2,1.9-14.35,3.25-20.31,3.25c-11.51,0-27.49-4.74-27.49-29.79V99.08h-10.97V80.53h12.19
					l9.07-18.42h16.11v18.42h20.45v18.55H978.6v17.33c0,8.13,2.98,10.97,7.85,10.97c2.71,0,7.85-0.81,10.02-1.76L1000,145.66z"/>
			</g>
		</g>
		<g>
			<g>
				<path class="st1" d="M152.05,75.84l-7.72-13.37c-3.04-5.26-10.49-9.56-16.56-9.56h0c-0.4,0-0.73,0.33-0.73,0.73v46.26
					c0,0.65,0.78,0.97,1.24,0.51l23.65-23.69C152.16,76.48,152.21,76.12,152.05,75.84z"/>
				<path class="st1" d="M153.19,79.65l-30.84,30.89c-0.46,0.46-0.13,1.24,0.51,1.24h35.42c0.26,0,0.5-0.14,0.63-0.36l1.32-2.28
					c3.04-5.26,3.04-13.86,0-19.12l-5.9-10.21C154.09,79.39,153.53,79.31,153.19,79.65z"/>
				<path class="st1" d="M137.22,142.88c0.24,0.24,0.62,0.29,0.91,0.11c2.51-1.61,4.68-3.68,5.99-5.95l12.24-21.2
					c0.28-0.48-0.07-1.09-0.63-1.09h-44.41c-0.64,0-0.97,0.78-0.52,1.24L137.22,142.88z"/>
				<path class="st1" d="M64.82,87.73l-1.32,2.29c-3.04,5.26-3.04,13.86,0,19.12l5.96,10.33c0.24,0.41,0.81,0.49,1.15,0.15
					L101.4,88.6c0.46-0.46,0.13-1.24-0.52-1.24H65.45C65.19,87.37,64.95,87.5,64.82,87.73z"/>
				<path class="st1" d="M86.19,56.47c-0.24-0.25-0.63-0.29-0.92-0.1c-2.37,1.58-4.4,3.57-5.66,5.73l-12.24,21.2
					C67.09,83.8,67.44,84.4,68,84.4h44.25c0.65,0,0.97-0.78,0.52-1.24L86.19,56.47z"/>
				<path class="st1" d="M99.66,145.51c0,0.4,0.33,0.73,0.73,0.73h27.8c1.82,0,3.76-0.4,5.67-1.11c0.49-0.18,0.61-0.82,0.25-1.19
					l-33.21-33.8c-0.46-0.46-1.25-0.14-1.25,0.51V145.51z"/>
				<path class="st1" d="M71.75,123.43l7.65,13.25c3.04,5.26,10.49,9.56,16.56,9.56h0c0.4,0,0.73-0.33,0.73-0.73V99.32
					c0-0.65-0.79-0.97-1.24-0.51l-23.58,23.75C71.64,122.79,71.59,123.15,71.75,123.43z"/>
				<path class="st1" d="M124.07,53.63c0-0.4-0.33-0.73-0.73-0.73h-27.8c-1.94,0-4.03,0.46-6.06,1.26c-0.48,0.19-0.6,0.82-0.23,1.18
					l33.58,33.72c0.46,0.46,1.24,0.14,1.24-0.51V53.63z"/>
			</g>
			
				<radialGradient id="SVGID_1_" cx="113.1733" cy="99.5736" r="102.5549" gradientTransform="matrix(1.035340e-13 -1 1.0678 1.105540e-13 6.8483 212.7469)" gradientUnits="userSpaceOnUse">
				<stop  offset="0" style="stop-color:#315A7C"/>
				<stop  offset="0.4087" style="stop-color:#2F5D7E"/>
				<stop  offset="0.6606" style="stop-color:#2A6584"/>
				<stop  offset="0.8692" style="stop-color:#22738F"/>
				<stop  offset="1" style="stop-color:#1A8199"/>
			</radialGradient>
			<path class="st2" d="M221.53,90.38c2.92,5.06,2.92,13.34,0,18.4l-12.72,22.02c-2.92,5.06-7.7,5.06-10.62,0l-12.72-22.02
				c-2.92-5.06-2.92-13.34,0-18.4l12.72-22.03c2.92-5.06,7.7-5.06,10.62,0L221.53,90.38z M190.99,143.28l-12.72-22.02
				c-2.92-5.06-7.7-5.06-10.62,0l-12.72,22.02c-2.92,5.06-2.92,13.34,0,18.4l12.72,22.02c2.92,5.06,7.7,5.06,10.62,0l12.71-22.02
				C193.91,156.62,193.91,148.34,190.99,143.28z M68.8,143.29l-12.72-22.02c-2.92-5.06-7.7-5.06-10.62,0l-12.72,22.03
				c-2.92,5.06-2.92,13.34,0,18.4l12.71,22.02c2.92,5.06,6.71,6.78,8.42,3.82c1.71-2.96,3.11-5.38,3.11-5.38c0,0,2.39-4.14,5.31-9.2
				l6.5-11.26C71.72,156.62,71.72,148.34,68.8,143.29z M154.93,55.86l12.72,22.03c2.92,5.06,7.7,5.06,10.62,0l12.72-22.03
				c2.92-5.06,2.92-13.34,0-18.4l-12.71-22.02c-2.92-5.06-7.7-5.06-10.62,0l-12.72,22.02C152.01,42.52,152.01,50.8,154.93,55.86z
				 M79.61,31.22c2.92,5.06,10.09,9.2,15.93,9.2h32.64c5.84,0,13.01-4.14,15.93-9.2L156.83,9.2c2.92-5.06,0.53-9.2-5.31-9.2H72.21
				c-5.84,0-8.23,4.14-5.31,9.2L79.61,31.22z M45.46,77.89c2.92,5.06,7.7,5.06,10.62,0L68.8,55.86c2.92-5.06,2.92-13.34,0-18.4
				L56.08,15.44c-2.92-5.06-7.7-5.06-10.62,0L32.74,37.46c-2.92,5.06-2.92,13.34,0,18.4L45.46,77.89z M2.19,108.78l12.72,22.02
				c2.92,5.06,7.7,5.06,10.62,0l12.72-22.02c2.92-5.06,2.92-13.34,0-18.4L25.53,68.35c-2.92-5.06-7.7-5.06-10.62,0L2.19,90.38
				C-0.73,95.44-0.73,103.72,2.19,108.78z M155.93,188.39c0,0-2.39-4.14-5.31-9.2l-6.5-11.26c-2.92-5.06-10.09-9.2-15.93-9.2H95.55
				c-5.84,0-13.01,4.14-15.93,9.2L66.9,189.95c-2.92,5.06-0.53,9.2,5.31,9.2h79.31c5.84,0,9.22-2.42,7.52-5.38
				S155.93,188.39,155.93,188.39z"/>
		</g>
	</g>
</g>
</svg>
