<?xml version="1.0" encoding="utf-8"?>
<!-- Generator: Adobe Illustrator 26.5.0, SVG Export Plug-In . SVG Version: 6.00 Build 0)  -->
<svg version="1.1" xmlns="http://www.w3.org/2000/svg" xmlns:xlink="http://www.w3.org/1999/xlink" x="0px" y="0px"
	 viewBox="0 0 1000 408.97" style="enable-background:new 0 0 1000 408.97;" xml:space="preserve">
<style type="text/css">
	.st0{fill:#3CD3C1;}
	.st1{fill:url(#SVGID_1_);}
	.st2{fill:#4C4C4C;}
</style>
<g id="Camada_1">
</g>
<g id="Modo_de_isolamento">
	<g>
		<g>
			<g>
				<path class="st0" d="M312.24,155.74l-15.85-27.45c-6.24-10.8-21.54-19.64-34.01-19.64h0c-0.82,0-1.49,0.67-1.49,1.49v95
					c0,1.33,1.61,2,2.55,1.05L312,157.54C312.48,157.07,312.58,156.33,312.24,155.74z"/>
				<path class="st0" d="M314.59,163.57l-63.34,63.44c-0.94,0.94-0.27,2.55,1.06,2.55h72.74c0.53,0,1.03-0.28,1.29-0.75l2.71-4.69
					c6.24-10.8,6.24-28.47,0-39.27l-12.11-20.98C316.45,163.03,315.28,162.87,314.59,163.57z"/>
				<path class="st0" d="M281.79,293.42c0.49,0.5,1.28,0.6,1.87,0.22c5.16-3.3,9.61-7.56,12.3-12.22l25.14-43.54
					c0.57-1-0.14-2.24-1.29-2.24H228.6c-1.32,0-1.99,1.59-1.06,2.54L281.79,293.42z"/>
				<path class="st0" d="M133.11,180.16l-2.71,4.7c-6.23,10.8-6.23,28.47,0,39.27l12.25,21.21c0.49,0.85,1.66,1,2.35,0.31
					l63.24-63.68c0.94-0.94,0.27-2.54-1.06-2.54H134.4C133.87,179.41,133.38,179.7,133.11,180.16z"/>
				<path class="st0" d="M177,115.97c-0.5-0.5-1.3-0.6-1.89-0.2c-4.87,3.24-9.04,7.33-11.61,11.77l-25.14,43.55
					c-0.57,1,0.14,2.24,1.29,2.24h90.88c1.33,0,2-1.6,1.06-2.55L177,115.97z"/>
				<path class="st0" d="M204.65,298.82c0,0.82,0.67,1.49,1.49,1.49h57.09c3.73,0,7.73-0.83,11.65-2.28c1-0.37,1.26-1.68,0.51-2.44
					l-68.19-69.42c-0.94-0.95-2.56-0.29-2.56,1.05V298.82z"/>
				<path class="st0" d="M147.35,253.48l15.71,27.2c6.24,10.8,21.54,19.64,34.01,19.64h0c0.82,0,1.49-0.67,1.49-1.49v-94.86
					c0-1.33-1.61-2-2.55-1.05l-48.43,48.77C147.11,252.16,147.01,252.89,147.35,253.48z"/>
				<path class="st0" d="M254.8,110.14c0-0.82-0.67-1.49-1.49-1.49h-57.09c-3.99,0-8.27,0.95-12.44,2.58
					c-0.99,0.39-1.22,1.68-0.48,2.43l68.96,69.24c0.94,0.94,2.55,0.28,2.55-1.05V110.14z"/>
			</g>
			
				<radialGradient id="SVGID_1_" cx="232.4111" cy="204.4828" r="210.6053" gradientTransform="matrix(1.035340e-13 -1 1.0678 1.105540e-13 14.0635 436.8939)" gradientUnits="userSpaceOnUse">
				<stop  offset="0" style="stop-color:#315A7C"/>
				<stop  offset="0.4087" style="stop-color:#2F5D7E"/>
				<stop  offset="0.6606" style="stop-color:#2A6584"/>
				<stop  offset="0.8692" style="stop-color:#22738F"/>
				<stop  offset="1" style="stop-color:#1A8199"/>
			</radialGradient>
			<path class="st1" d="M454.94,185.6c6,10.39,6,27.39,0,37.78l-26.11,45.23c-6,10.39-15.81,10.39-21.81,0l-26.11-45.23
				c-6-10.39-6-27.39,0-37.78l26.11-45.23c6-10.39,15.81-10.39,21.81,0L454.94,185.6z M392.21,294.25l-26.11-45.23
				c-6-10.39-15.81-10.39-21.81,0l-26.11,45.23c-6,10.39-6,27.39,0,37.78l26.11,45.22c6,10.39,15.82,10.39,21.81,0l26.11-45.22
				C398.21,321.64,398.21,304.64,392.21,294.25z M141.28,294.25l-26.11-45.23c-6-10.39-15.81-10.39-21.81,0l-26.11,45.23
				c-6,10.39-6,27.39,0,37.78l26.11,45.22c6,10.39,13.78,13.92,17.28,7.84c3.51-6.08,6.38-11.05,6.38-11.04
				c0,0,4.91-8.5,10.91-18.89l13.36-23.13C147.28,321.64,147.28,304.64,141.28,294.25z M318.17,114.72l26.11,45.23
				c6,10.39,15.81,10.39,21.81,0l26.11-45.24c6-10.39,6-27.39,0-37.78l-26.1-45.21c-6-10.39-15.81-10.39-21.81,0l-26.11,45.22
				C312.17,87.33,312.17,104.33,318.17,114.72z M163.49,64.11c6,10.39,20.72,18.89,32.72,18.89h67.03c12,0,26.72-8.5,32.72-18.89
				l26.11-45.22C328.07,8.5,323.16,0,311.16,0H148.29c-12,0-16.9,8.5-10.91,18.89L163.49,64.11z M93.35,159.95
				c6,10.39,15.81,10.39,21.81,0l26.12-45.24c6-10.39,6-27.39,0-37.78l-26.11-45.22c-6-10.39-15.82-10.39-21.81,0L67.24,76.93
				c-6,10.39-6,27.39,0,37.78L93.35,159.95z M4.5,223.38l26.11,45.23c6,10.39,15.82,10.39,21.82,0l26.12-45.23
				c6-10.39,6-27.39,0-37.78l-26.12-45.23c-6-10.39-15.82-10.39-21.81,0L4.5,185.6C-1.5,195.99-1.5,212.99,4.5,223.38z
				 M320.21,386.87c0,0-4.9-8.5-10.9-18.89l-13.35-23.12c-6-10.39-20.72-18.89-32.72-18.89h-67.03c-12,0-26.72,8.5-32.72,18.89
				l-26.11,45.22c-6,10.39-1.09,18.89,10.91,18.89h162.86c12,0,18.94-4.97,15.44-11.05C323.08,391.84,320.21,386.87,320.21,386.87z"
				/>
		</g>
		<g>
			<path class="st2" d="M514.78,130.35c0-36.86,22.82-61.54,56.97-61.54s56.8,24.68,56.8,61.54c0,37.19-22.82,61.88-56.97,61.88
				C537.44,192.23,514.78,167.54,514.78,130.35z M594.75,130.52c0-19.78-9.3-32.97-22.99-32.97c-13.86,0-23.16,13.19-23.16,32.97
				c0,19.78,9.3,32.97,22.99,32.97C585.45,163.49,594.75,150.3,594.75,130.52z"/>
			<path class="st2" d="M637.86,148.61c0-25.53,18.6-43.45,45.82-43.45c13.19,0,26.54,4.06,33.14,9.97l-12,20.29
				c-4.06-2.2-10.31-3.38-15.22-3.38c-10.99,0-17.75,6.26-17.75,15.89c0,10.31,8.28,17.41,21.13,17.41c5.92,0,12-1.52,16.23-3.72
				l4.57,25.02c-7.95,3.21-19.27,5.58-29.25,5.58C657.64,192.23,637.86,174.98,637.86,148.61z"/>
			<path class="st2" d="M804.56,156.05h-47.84c2.54,7.95,9.13,10.82,17.07,10.82c7.61,0,13.19-1.18,18.6-3.21l7.1,21.3
				c-6.93,4.06-21.47,7.44-32.97,7.44c-25.36,0-44.97-16.74-44.97-44.13c0-24.34,18.09-43.11,44.63-43.11
				c24.85,0,41.25,16.57,41.25,45.48L804.56,156.05z M756.04,140.66h18.26c-1.18-8.11-4.06-10.65-8.62-10.65
				C761.11,130.01,757.4,132.55,756.04,140.66z"/>
			<path class="st2" d="M897.89,144.21v46.32h-29.25l-2.71-10.99c-6.25,7.78-16.06,12.68-26.54,12.68
				c-15.72,0-26.04-11.16-26.04-24.85c0-17.08,16.06-24.68,32.63-24.68c6.09,0,14.03,1.02,18.93,1.86v-2.54
				c0-7.27-6.43-11.5-17.08-11.5c-6.93,0-16.91,1.86-23.33,4.4l-4.4-22.49c8.11-4.23,24.85-7.27,37.02-7.27
				C884.19,105.16,897.89,120.71,897.89,144.21z M864.92,168.05v-9.97c-2.87-0.51-4.57-0.84-8.62-0.84c-5.92,0-8.96,2.54-8.96,6.42
				c0,4.06,2.2,6.59,7.27,6.59C857.48,170.25,861.2,169.57,864.92,168.05z"/>
			<path class="st2" d="M1000,141.51v49.03h-32.97v-46.83c0-9.13-3.55-11.67-9.97-11.67c-2.37,0-5.07,0.51-8.45,1.86v56.64h-32.97
				v-83.69l29.75-1.69l1.86,10.14c8.11-5.75,16.74-10.14,25.53-10.14C985.97,105.16,1000,113.78,1000,141.51z"/>
			<path class="st2" d="M513.09,328.15l4.57-27.05c10.65,5.41,20.63,10.48,35.84,10.48c9.81,0,17.41-1.01,17.41-7.1
				c0-3.21-2.2-6.09-8.28-8.96l-18.93-8.96c-17.41-8.11-25.7-17.07-25.7-33.14c0-25.19,19.95-36.86,45.14-36.86
				c12.51,0,28.4,2.87,38.72,7.78l-4.4,27.22c-8.28-4.23-20.29-6.25-29.75-6.25s-15.89,1.18-15.89,6.25c0,2.87,2.2,5.24,7.1,7.44
				l20.46,9.64c17.58,7.95,25.36,19.78,25.36,34.15c0,22.65-19.95,37.36-48.01,37.36C540.65,340.15,523.91,335.42,513.09,328.15z"/>
			<path class="st2" d="M702.44,289.27v49.03h-32.97v-46.83c0-9.13-3.55-11.66-9.97-11.66c-2.37,0-5.07,0.51-8.45,1.86v56.64h-32.97
				V219.95l32.97-3.38v45.48c7.61-5.24,15.89-9.13,24.18-9.13C688.41,252.92,702.44,261.54,702.44,289.27z"/>
			<path class="st2" d="M715.8,296.54c0-26.2,17.92-43.62,44.8-43.62c26.71,0,44.8,17.41,44.8,43.62
				c0,26.03-18.09,43.45-44.97,43.45C733.72,339.99,715.8,322.57,715.8,296.54z M771.42,296.54c0-10.14-4.4-16.74-10.82-16.74
				c-6.59,0-10.82,6.59-10.82,16.74c0,9.97,4.23,16.57,10.65,16.57C767.03,313.1,771.42,306.34,771.42,296.54z"/>
			<path class="st2" d="M884.02,335.93c-5.24,2.37-17.92,4.06-25.36,4.06c-14.37,0-34.32-5.92-34.32-37.19v-25.02h-13.69v-23.16
				h15.22l11.33-22.99h20.12v22.99h25.53v23.16h-25.53v21.64c0,10.14,3.72,13.69,9.81,13.69c3.38,0,9.81-1.01,12.51-2.2
				L884.02,335.93z"/>
		</g>
	</g>
</g>
</svg>
